<?xml version="1.0" standalone="no"?><!DOCTYPE svg PUBLIC "-//W3C//DTD SVG 1.1//EN" "http://www.w3.org/Graphics/SVG/1.1/DTD/svg11.dtd"><svg t="1556092967616" class="icon" style="" viewBox="0 0 1024 1024" version="1.1" xmlns="http://www.w3.org/2000/svg" p-id="5522" xmlns:xlink="http://www.w3.org/1999/xlink" width="200" height="200"><defs><style type="text/css"></style></defs><path d="M512 1024c282.77 0 512-229.23 512-512S794.77 0 512 0 0 229.23 0 512s229.23 512 512 512z m97.973-280.648c7.466 0 15.878-1.269 25.32-3.806 9.526-2.453 16.307-4.65 20.598-6.511l-8.238 32.126c-24.635 9.3-44.288 16.401-59.051 21.305-14.678 4.818-31.758 7.27-51.155 7.27-29.954 0-53.128-6.934-69.692-20.883-16.651-13.95-24.89-31.703-24.89-53.09a180.006 180.006 0 0 1 1.802-25.533 294.824 294.824 0 0 1 6.009-29.589l30.898-104.491a467.518 467.518 0 0 0 6.952-28.405c1.887-8.96 2.745-17.162 2.745-24.516 0-13.358-2.831-22.658-8.583-27.899-5.75-5.326-16.65-7.862-32.957-7.862a89.648 89.648 0 0 0-24.634 3.551c-8.324 2.367-15.448 4.65-21.457 6.764l8.24-32.21c20.169-7.863 39.481-14.54 58.021-20.12 18.453-5.665 35.876-8.455 52.356-8.455 29.696 0 52.527 6.848 68.663 20.544 16.05 13.78 24.118 31.533 24.118 53.513 0 4.566-0.602 12.513-1.716 24.01-1.032 11.412-3.177 21.896-6.182 31.448l-30.726 104.07c-2.403 8.37-4.72 17.923-6.695 28.659-2.06 10.738-3.004 18.853-3.004 24.348 0 13.781 3.177 23.249 9.7 28.153 6.437 5.072 17.68 7.609 33.558 7.609z m32.27-493.713c13.739 11.643 21.585 28.646 21.458 46.497 0.16 17.809-7.698 34.772-21.457 46.327-14.126 12.67-32.653 19.51-51.754 19.106-20.17 0-37.509-6.426-51.927-19.106-13.874-11.492-21.833-28.472-21.716-46.327-0.097-17.9 7.854-34.923 21.716-46.497 14.14-12.788 32.735-19.721 51.927-19.36 19.143-0.378 37.692 6.56 51.754 19.36z" fill="#DDAF59" p-id="5523"></path></svg>