<?xml version="1.0" standalone="no"?><!DOCTYPE svg PUBLIC "-//W3C//DTD SVG 1.1//EN" "http://www.w3.org/Graphics/SVG/1.1/DTD/svg11.dtd"><svg t="1557973301148" class="icon" style="" viewBox="0 0 1026 1024" version="1.1" xmlns="http://www.w3.org/2000/svg" p-id="3022" xmlns:xlink="http://www.w3.org/1999/xlink" width="200.390625" height="200"><defs><style type="text/css"></style></defs><path d="M630 0l287 287v699c0 20.987-17.013 38-38 38H145c-20.987 0-38-17.013-38-38V38c0-20.987 17.013-38 38-38h485z" fill="#FFFFFF" p-id="3023"></path><path d="M145 16c-12.15 0-22 9.85-22 22v948c0 12.15 9.85 22 22 22h734c12.15 0 22-9.85 22-22V293.627L623.373 16H145zM630 0l287 287v699c0 20.987-17.013 38-38 38H145c-20.987 0-38-17.013-38-38V38c0-20.987 17.013-38 38-38h485z" fill="#E63F39" p-id="3024"></path><path d="M291.74 847.984c30.662-21.276 50.999-52.563 70.397-83.538-27.846 23.778-54.127 50.373-70.397 83.538z m363.563-155.5c28.784 13.767 60.385 28.472 92.924 19.711-22.527-27.22-61.95-19.711-92.924-19.711zM429.719 713.76c41.612-15.331 84.164-27.22 127.34-36.294-27.845-24.717-51.31-53.502-70.083-85.728-15.331 42.238-35.668 82.6-57.257 122.022z m62.262-223.082c13.454-34.416 17.521-76.342-5.319-107.63-6.57 35.668-3.754 72.588 5.32 107.63z m-41.612-96.366c3.754-22.84 32.852-27.22 50.999-20.337 11.263 7.196 16.895 20.962 17.208 34.103 1.251 40.361-5.945 80.097-11.577 119.832-3.128 18.46 8.135 35.043 16.27 50.686 20.024 36.92 47.87 70.085 84.477 91.36 44.115-5.318 90.42-11.889 133.598 2.19 32.226 10.951 24.717 70.71-10.325 71.336-49.122 2.503-93.55-21.9-137.666-39.735-60.698 4.38-119.832 22.84-178.028 40.361-26.281 42.864-50.06 90.735-92.611 119.832-21.276 16.583-70.085 2.816-59.134-29.41 18.46-45.054 64.453-69.772 104.814-92.298 11.576-5.945 18.147-17.209 24.092-28.472 27.533-52.876 55.066-105.753 77.28-161.132-11.576-51.937-28.472-105.127-19.398-158.316zM630 0l287 287H651c-11.598 0-21-9.402-21-21V0zM120.5 98h259C446.05 98 500 151.95 500 218.5S446.05 339 379.5 339h-259C53.95 339 0 285.05 0 218.5S53.95 98 120.5 98z" fill="#E63F39" p-id="3025"></path><path d="M121.01 167.898h42.328c24.31 0 36.465 10.344 36.465 31.031 0 20.878-12.25 31.317-36.751 31.317h-26.455V270H121.01V167.898z m15.587 13.299v35.75h25.454c7.722 0 13.347-1.43 16.874-4.29 3.527-2.955 5.291-7.531 5.291-13.728 0-6.387-1.811-10.868-5.434-13.442-3.527-2.86-9.104-4.29-16.731-4.29h-25.454z m77.649-13.299h37.18c16.397 0 28.886 4.624 37.466 13.871 8.008 8.58 12.012 20.973 12.012 37.18 0 15.92-4.1 28.362-12.298 37.323-8.58 9.152-21.069 13.728-37.466 13.728h-36.894V167.898z m15.587 13.299v75.504h18.447c12.965 0 22.451-3.098 28.457-9.295 5.91-6.197 8.866-15.682 8.866-28.457 0-12.965-2.908-22.499-8.723-28.6-6.006-6.101-15.444-9.152-28.314-9.152h-18.733z m86.944-13.299h69.355v13.299h-53.768v29.744h50.765v13.299h-50.765V270h-15.587V167.898z" fill="#FFFFFF" p-id="3026"></path></svg>