<?xml version="1.0" encoding="UTF-8"?>
<svg width="375px" height="119px" viewBox="0 0 375 119" version="1.1" xmlns="http://www.w3.org/2000/svg" xmlns:xlink="http://www.w3.org/1999/xlink">
    <!-- Generator: Sketch 53.2 (72643) - https://sketchapp.com -->
    <title>更多筛选时间</title>
    <desc>Created with Sketch.</desc>
    <defs>
        <linearGradient x1="100%" y1="50%" x2="-19.5385323%" y2="50.2028586%" id="linearGradient-1">
            <stop stop-color="#FFFFFF" stop-opacity="0" offset="0%"></stop>
            <stop stop-color="#FFE8BC" offset="26.0160766%"></stop>
            <stop stop-color="#FFDEA0" offset="72.1053107%"></stop>
            <stop stop-color="#FFFFFF" stop-opacity="0" offset="100%"></stop>
        </linearGradient>
        <linearGradient x1="100%" y1="50%" x2="-19.5385323%" y2="50.0787229%" id="linearGradient-2">
            <stop stop-color="#FFFFFF" stop-opacity="0" offset="0%"></stop>
            <stop stop-color="#FFE8BC" offset="26.0160766%"></stop>
            <stop stop-color="#FFDEA0" offset="72.1053107%"></stop>
            <stop stop-color="#FFFFFF" stop-opacity="0" offset="100%"></stop>
        </linearGradient>
        <linearGradient x1="100%" y1="50%" x2="-19.5385323%" y2="50.3066594%" id="linearGradient-3">
            <stop stop-color="#FFFFFF" stop-opacity="0" offset="0%"></stop>
            <stop stop-color="#FFE8BC" offset="26.0160766%"></stop>
            <stop stop-color="#FFDEA0" offset="72.1053107%"></stop>
            <stop stop-color="#FFFFFF" stop-opacity="0" offset="100%"></stop>
        </linearGradient>
        <linearGradient x1="100%" y1="50%" x2="-19.5385323%" y2="50.1649146%" id="linearGradient-4">
            <stop stop-color="#FFFFFF" stop-opacity="0" offset="0%"></stop>
            <stop stop-color="#FFE8BC" offset="26.0160766%"></stop>
            <stop stop-color="#FFDEA0" offset="72.1053107%"></stop>
            <stop stop-color="#FFFFFF" stop-opacity="0" offset="100%"></stop>
        </linearGradient>
        <filter x="-11.5%" y="-37.5%" width="123.1%" height="175.0%" filterUnits="objectBoundingBox" id="filter-5">
            <feGaussianBlur stdDeviation="1" in="SourceGraphic"></feGaussianBlur>
        </filter>
        <filter x="-37.5%" y="-12.0%" width="175.0%" height="124.0%" filterUnits="objectBoundingBox" id="filter-6">
            <feGaussianBlur stdDeviation="1" in="SourceGraphic"></feGaussianBlur>
        </filter>
        <filter x="-16.7%" y="-15.0%" width="133.3%" height="130.0%" filterUnits="objectBoundingBox" id="filter-7">
            <feGaussianBlur stdDeviation="1" in="SourceGraphic"></feGaussianBlur>
        </filter>
        <filter x="-15.8%" y="-50.5%" width="131.6%" height="201.1%" filterUnits="objectBoundingBox" id="filter-8">
            <feGaussianBlur stdDeviation="1" in="SourceGraphic"></feGaussianBlur>
        </filter>
        <filter x="-50.5%" y="-16.8%" width="201.1%" height="133.7%" filterUnits="objectBoundingBox" id="filter-9">
            <feGaussianBlur stdDeviation="1" in="SourceGraphic"></feGaussianBlur>
        </filter>
        <filter x="-23.0%" y="-21.1%" width="145.9%" height="142.1%" filterUnits="objectBoundingBox" id="filter-10">
            <feGaussianBlur stdDeviation="1" in="SourceGraphic"></feGaussianBlur>
        </filter>
        <linearGradient x1="50%" y1="0%" x2="50%" y2="100%" id="linearGradient-11">
            <stop stop-color="#FFFBF3" offset="0%"></stop>
            <stop stop-color="#F7D7AD" offset="100%"></stop>
        </linearGradient>
        <linearGradient x1="146.078726%" y1="49.8820408%" x2="0%" y2="50.1179592%" id="linearGradient-12">
            <stop stop-color="#CDA44E" offset="0%"></stop>
            <stop stop-color="#FFFFFF" offset="100%"></stop>
        </linearGradient>
        <linearGradient x1="146.078726%" y1="49.5281633%" x2="0%" y2="50.4718367%" id="linearGradient-13">
            <stop stop-color="#CDA44E" offset="0%"></stop>
            <stop stop-color="#FFFFFF" offset="100%"></stop>
        </linearGradient>
    </defs>
    <g id="页面-1" stroke="none" stroke-width="1" fill="none" fill-rule="evenodd">
        <g id="更多筛选时间" transform="translate(0.000000, -548.000000)">
            <g id="分组-2" transform="translate(-180.000000, 548.000000)">
                <g id="分组-5">
                    <path d="M509,114.972753 C439.79747,128.342416 390.602586,128.342416 361.415349,114.972753 C317.634492,94.9182591 261.811632,71.4926181 192.889762,64.8150946 C146.941848,60.3634123 82.6452612,74.146554 0,106.16452" id="Path-5" stroke="url(#linearGradient-1)" stroke-width="0.5"></path>
                    <path d="M510,77.4759016 C483.379754,77.2629414 448.563898,81.3119479 405.552431,89.6229213 C341.03523,102.089381 278.024022,61.7833154 209.102152,55.1648732 C163.154239,50.7525785 93.7868547,58.8749169 1,79.5318884" id="Path-5-Copy-3" stroke="url(#linearGradient-2)" stroke-width="0.5"></path>
                    <path d="M509,25.5295864 C452.664028,7.49013786 391.489128,7.49013786 325.4753,25.5295864 C226.454557,52.5887593 154.365881,84.1776043 102.209269,86.6864342 C67.4381949,88.3589875 33.3684385,83.3405175 0,71.6310241" id="Path-5-Copy" stroke="url(#linearGradient-3)" stroke-width="0.5"></path>
                    <path d="M509,14.4143482 C463.479606,-9.63608713 408.695587,-3.59028964 344.647943,32.5517407 C248.576476,86.7647862 194.157298,26.5840897 129.644009,20.0486151 C86.6351504,15.691632 43.4204806,20.799951 0,35.3735719" id="Path-5-Copy-2" stroke="url(#linearGradient-4)" stroke-width="0.5"></path>
                    <g id="Group" opacity="0.340000004" transform="translate(239.000000, 19.000000)" fill="#FA6400">
                        <polygon id="Path-6" opacity="0.100000001" points="0 4.50051007 7.18093369 0 18 0.820052731 12.5440624 5.4"></polygon>
                        <polygon id="Path-6" opacity="0.300000012" points="12.6 18 18 11.8711251 18 0.9 12.6 5.47196056"></polygon>
                        <polygon id="Path-6-Copy" opacity="0.200000003" points="0 4.5 0 17.1616098 12.6 18 12.6 5.3823888"></polygon>
                    </g>
                    <g id="Group-Copy" opacity="0.680000007" transform="translate(346.000000, 73.000000)" fill="#97D2FF">
                        <polygon id="Path-6" opacity="0.100000001" filter="url(#filter-5)" points="0 6.66742232 10.3724598 0 26 1.21489294 18.1192013 8"></polygon>
                        <polygon id="Path-6" opacity="0.300000012" filter="url(#filter-6)" points="18 26 26 17.0396565 26 1 18 7.68415287"></polygon>
                        <polygon id="Path-6-Copy" opacity="0.200000003" filter="url(#filter-7)" points="0 6 0 24.7579404 18 26 18 7.30724266"></polygon>
                    </g>
                    <g id="Group-Copy-2" opacity="0.680000007" transform="translate(458.000000, 42.000000)" fill="#DDAF59">
                        <polygon id="Path-6" opacity="0.100000001" filter="url(#filter-8)" points="0 4.9484775 7.57987446 0 19 0.901678351 13.2409548 5.9375"></polygon>
                        <polygon id="Path-6" opacity="0.300000012" filter="url(#filter-9)" points="13.0625 19 19 12.6157553 19 1.1875 13.0625 5.94995892"></polygon>
                        <polygon id="Path-6-Copy" opacity="0.200000003" filter="url(#filter-10)" points="0 4.75 0 18.1150325 13.0625 19 13.0625 5.6814104"></polygon>
                    </g>
                    <g id="Group-Copy-3" opacity="0.680000007" transform="translate(518.000000, 99.000000)" fill="#DDAF59">
                        <polygon id="Path-6" opacity="0.100000001" points="0 7.29249316 11.1703413 0 28 1.32878915 19.512986 8.75"></polygon>
                        <polygon id="Path-6" opacity="0.300000012" points="19.25 28 28 18.5916394 28 1.75 19.25 8.76836051"></polygon>
                        <polygon id="Path-6-Copy" opacity="0.200000003" points="0 7 0 26.6958374 19.25 28 19.25 8.37260479"></polygon>
                    </g>
                    <g id="分组-4-copy" opacity="0.200000003" transform="translate(224.900974, 58.183460)" fill-rule="nonzero">
                        <path d="M4.45584944,5.90625 C5.44932626,5.90625 6.36629673,4.95774405 6.4690819,3.57051924 C6.57655888,2.11901967 5.69450836,0.75 4.45584944,0.75 C3.2172379,0.75 2.33513209,2.11901967 2.44269595,3.57051924 C2.54543374,4.95774405 3.46242,5.90625 4.45584944,5.90625 Z M4.43786549,5.90625 C2.21430377,5.90625 0.411764706,6.92509504 0.411764706,8.18190965 C0.411764706,8.6116783 0.754653751,8.77733868 1.7630766,8.9029173 C2.54264347,9 3.47336713,9 4.45588235,9 C5.46228315,9 6.46038244,9 7.16255816,8.9029173 C8.15586297,8.76557991 8.5,8.6116783 8.5,8.18190965 C8.5,6.92509504 6.66134823,5.90625 4.43786549,5.90625 Z" id="形状" fill="url(#linearGradient-11)"></path>
                        <rect id="矩形" fill="url(#linearGradient-12)" x="11.4411765" y="1.5" width="30.8823529" height="1.5" rx="0.75"></rect>
                        <rect id="矩形-copy-15" fill="url(#linearGradient-13)" x="11.4411765" y="6.75" width="15.4411765" height="1.5" rx="0.75"></rect>
                    </g>
                </g>
            </g>
        </g>
    </g>
</svg>