<?xml version="1.0" encoding="UTF-8"?>
<svg width="26px" height="33px" viewBox="0 0 26 33" version="1.1" xmlns="http://www.w3.org/2000/svg" xmlns:xlink="http://www.w3.org/1999/xlink">
    <!-- Generator: Sketch 53.2 (72643) - https://sketchapp.com -->
    <title>Group 3 Copy 3</title>
    <desc>Created with Sketch.</desc>
    <defs>
        <linearGradient x1="27.7695764%" y1="6.86608419%" x2="82.9066895%" y2="100%" id="linearGradient-1">
            <stop stop-color="#F8B49A" offset="0%"></stop>
            <stop stop-color="#F8A080" offset="100%"></stop>
        </linearGradient>
        <linearGradient x1="37.308492%" y1="0%" x2="50%" y2="100%" id="linearGradient-2">
            <stop stop-color="#DC714A" offset="0%"></stop>
            <stop stop-color="#F29D7C" offset="100%"></stop>
        </linearGradient>
    </defs>
    <g id="页面-1" stroke="none" stroke-width="1" fill="none" fill-rule="evenodd">
        <g id="总监管理视图-指标点评量" transform="translate(-30.000000, -770.000000)">
            <g id="Group-6" transform="translate(30.000000, 770.000000)">
                <polygon id="Rectangle" fill="#FFBBA6" points="6 17 20 17 20 31 12.7963123 27.1906478 6 31"></polygon>
                <circle id="Oval" fill="url(#linearGradient-1)" cx="13" cy="13" r="11"></circle>
                <circle id="Oval" stroke="#E4815C" fill="url(#linearGradient-1)" cx="13" cy="13" r="9"></circle>
                <path d="M13,16 L10.1906773,17.4769483 C9.99513951,17.5797486 9.75328865,17.50457 9.65048833,17.3090322 C9.6095527,17.231168 9.59542683,17.1419808 9.61029757,17.0552777 L10.1468305,13.927051 L7.87404068,11.7116285 C7.71584725,11.557428 7.71261033,11.3041827 7.86681081,11.1459893 C7.92821426,11.0829958 8.00867122,11.042001 8.09572603,11.0293511 L11.2366442,10.572949 L12.6413056,7.7267943 C12.7390745,7.52869284 12.9789248,7.44735724 13.1770263,7.54512615 C13.2559113,7.58405825 13.3197623,7.64790926 13.3586944,7.7267943 L14.7633558,10.572949 L17.904274,11.0293511 C18.1228919,11.0611182 18.2743645,11.2640953 18.2425974,11.4827133 C18.2299476,11.5697681 18.1889528,11.6502251 18.1259593,11.7116285 L15.8531695,13.927051 L16.3897024,17.0552777 C16.4270468,17.2730123 16.2808117,17.4797947 16.0630771,17.5171391 C15.9763741,17.5320098 15.8871868,17.517884 15.8093227,17.4769483 L13,16 Z" id="Star" fill="url(#linearGradient-2)"></path>
            </g>
        </g>
    </g>
</svg>