<?xml version="1.0" encoding="UTF-8"?>
<svg width="22px" height="22px" viewBox="0 0 22 22" version="1.1" xmlns="http://www.w3.org/2000/svg" xmlns:xlink="http://www.w3.org/1999/xlink">
    <!-- Generator: Sketch 53.2 (72643) - https://sketchapp.com -->
    <title>我的团队-分行领导</title>
    <desc>Created with Sketch.</desc>
    <g id="页面-1" stroke="none" stroke-width="1" fill="none" fill-rule="evenodd">
        <g id="总监管理视图-研究员使用情况" transform="translate(-82.000000, -320.000000)">
            <g id="Group-7" transform="translate(82.000000, 320.000000)">
                <g id="日历icon">
                    <path d="M9.00120544,3 L13.0020599,3 M16.0013733,3 L18,3 C19.1045695,3 20,3.8954305 20,5 L20,17 C20,18.1045695 19.1045695,19 18,19 L4,19 C2.8954305,19 2,18.1045695 2,17 L2,5 C2,3.8954305 2.8954305,3 4,3 L4,3 L5.99795729,3" id="形状" stroke="#DDAF59" stroke-linecap="round" stroke-linejoin="round"></path>
                    <rect id="矩形" fill="#DDAF59" x="7" y="1" width="1" height="4" rx="0.5"></rect>
                    <rect id="矩形-copy-2" fill="#DDAF59" x="14" y="1" width="1" height="4" rx="0.5"></rect>
                    <rect id="矩形" fill="#DDAF59" x="2" y="7" width="18" height="1" rx="0.5"></rect>
                    <circle id="椭圆形" fill="#DDAF59" cx="6" cy="11" r="1"></circle>
                    <circle id="椭圆形-copy-5" fill="#DDAF59" cx="6" cy="15" r="1"></circle>
                    <circle id="椭圆形-copy-3" fill="#DDAF59" cx="16" cy="11" r="1"></circle>
                    <circle id="椭圆形-copy-6" fill="#DDAF59" cx="16" cy="15" r="1"></circle>
                    <circle id="椭圆形-copy-4" fill="#DDAF59" cx="11" cy="11" r="1"></circle>
                    <circle id="椭圆形-copy-7" fill="#DDAF59" cx="11" cy="15" r="1"></circle>
                </g>
            </g>
        </g>
    </g>
</svg>